<?xml version="1.0" encoding="UTF-8"?>
<svg id="Layer_1" xmlns="http://www.w3.org/2000/svg" version="1.1" viewBox="0 0 263.34 303.97">
  <!-- Generator: Adobe Illustrator 30.0.0, SVG Export Plug-In . SVG Version: 2.1.1 Build 123)  -->
  <defs>
    <style>
      .st0 {
        fill: #231f20;
      }
    </style>
  </defs>
  <g>
    <path class="st0" d="M9.09,244.38l15.23-15.23c-.27-.1-.61-.24-.82-.35-1.4-.73-2.32-1.57-2.47-2.24-.17-.75.23-2.25,1.46-3.98,3.91-3.97,23.65-25.04,28.59-50.02,4.77-24.13,4.2-57.55,4.15-60.22.05-29.18,19.74-54.71,47.93-62.11,4.07-1.07,7.11-4.47,7.72-8.64l.22-1.51c.02-.11.03-.22.04-.33,1.2-10.51,9.97-18.46,20.51-18.72,10.54.27,19.31,8.22,20.51,18.72.01.11.03.22.04.33l.22,1.51c.61,4.17,3.65,7.57,7.72,8.64,10.65,2.8,20.08,8.18,27.71,15.37l14.86-14.86c-8.61-8.24-19-14.73-30.67-18.82C167.53,13.73,151.34.5,132.21.02v-.02c-.18,0-.36,0-.54.01-.18,0-.36-.01-.54-.01v.02c-19.12.48-35.32,13.7-39.85,31.9-33.9,11.88-57.04,44.07-57.04,80.52,0,.08,0,.15,0,.23,0,.33.66,33.46-3.75,55.81-4.09,20.68-23.1,39.51-23.28,39.69-.35.34-.68.71-.98,1.1-5.26,6.81-7.28,14.54-5.69,21.78,1.14,5.2,4.13,9.79,8.57,13.32Z"/>
    <path class="st0" d="M257.12,209.28c-.29-.38-.63-.75-.97-1.09-.19-.19-19.21-19.02-23.29-39.7-4.42-22.35-3.76-55.48-3.75-55.81,0-.08,0-.15,0-.23,0-9.02-1.42-17.77-4.06-26.02l-17.51,17.51c.37,2.76.56,5.57.57,8.41-.05,2.67-.62,36.09,4.15,60.22,4.94,24.98,24.68,46.04,28.59,50.02,1.23,1.74,1.62,3.23,1.46,3.99-.15.67-1.07,1.51-2.42,2.21-.27.13-.66.3-.94.4H82.28l-21,21h17.7c1.4,29.92,24.76,53.8,53.26,53.8s51.86-23.88,53.26-53.8h54.12c4.19,0,8.34-1.93,9.93-2.76,7.05-3.68,11.76-9.49,13.27-16.35,1.59-7.24-.43-14.98-5.69-21.78ZM132.24,282.97c-16.96,0-30.89-14.47-32.22-32.8h64.44c-1.32,18.33-15.26,32.8-32.22,32.8Z"/>
  </g>
  <path class="st0" d="M237.02,34.09c-2.69,0-5.37,1.03-7.42,3.08L3.72,263.05c-4.1,4.1-4.1,10.75,0,14.85,2.05,2.05,4.74,3.08,7.42,3.08s5.37-1.02,7.42-3.08L244.45,52.02c4.1-4.1,4.1-10.75,0-14.85-2.05-2.05-4.74-3.08-7.42-3.08Z"/>
</svg>